<svg width="25" height="25" viewBox="0 0 25 25" fill="none" xmlns="http://www.w3.org/2000/svg">
<path d="M12.5 7.8125C11.5729 7.8125 10.6666 8.08742 9.89576 8.60249C9.12491 9.11756 8.5241 9.84964 8.16931 10.7062C7.81453 11.5627 7.7217 12.5052 7.90257 13.4145C8.08344 14.3238 8.52988 15.159 9.18544 15.8146C9.841 16.4701 10.6762 16.9166 11.5855 17.0974C12.4948 17.2783 13.4373 17.1855 14.2938 16.8307C15.1504 16.4759 15.8824 15.8751 16.3975 15.1042C16.9126 14.3334 17.1875 13.4271 17.1875 12.5C17.1875 11.2568 16.6936 10.0645 15.8146 9.18544C14.9355 8.30636 13.7432 7.8125 12.5 7.8125ZM12.5 15.625C11.8819 15.625 11.2777 15.4417 10.7638 15.0983C10.2499 14.755 9.8494 14.2669 9.61288 13.6959C9.37635 13.1249 9.31447 12.4965 9.43505 11.8903C9.55562 11.2842 9.85325 10.7273 10.2903 10.2903C10.7273 9.85325 11.2842 9.55562 11.8903 9.43505C12.4965 9.31447 13.1249 9.37635 13.6959 9.61288C14.2669 9.8494 14.755 10.2499 15.0983 10.7638C15.4417 11.2777 15.625 11.8819 15.625 12.5C15.6224 13.328 15.2924 14.1214 14.7069 14.7069C14.1214 15.2924 13.328 15.6224 12.5 15.625ZM16.7969 2.73438H8.20312C6.75272 2.73438 5.36172 3.31055 4.33613 4.33613C3.31055 5.36172 2.73438 6.75272 2.73438 8.20312V16.7969C2.73438 18.2473 3.31055 19.6383 4.33613 20.6639C5.36172 21.6895 6.75272 22.2656 8.20312 22.2656H16.7969C18.2473 22.2656 19.6383 21.6895 20.6639 20.6639C21.6895 19.6383 22.2656 18.2473 22.2656 16.7969V8.20312C22.2656 6.75272 21.6895 5.36172 20.6639 4.33613C19.6383 3.31055 18.2473 2.73438 16.7969 2.73438ZM20.7031 16.7969C20.7031 17.3099 20.6021 17.8178 20.4058 18.2917C20.2095 18.7657 19.9217 19.1963 19.559 19.559C19.1963 19.9217 18.7657 20.2095 18.2917 20.4058C17.8178 20.6021 17.3099 20.7031 16.7969 20.7031H8.20312C7.69015 20.7031 7.1822 20.6021 6.70827 20.4058C6.23434 20.2095 5.80372 19.9217 5.44099 19.559C5.07826 19.1963 4.79053 18.7657 4.59422 18.2917C4.39791 17.8178 4.29688 17.3099 4.29688 16.7969V8.20312C4.29688 7.16712 4.70843 6.17355 5.44099 5.44099C6.17355 4.70843 7.16712 4.29688 8.20312 4.29688H16.7969C17.3099 4.29688 17.8178 4.39791 18.2917 4.59422C18.7657 4.79053 19.1963 5.07826 19.559 5.44099C19.9217 5.80372 20.2095 6.23434 20.4058 6.70827C20.6021 7.1822 20.7031 7.69015 20.7031 8.20312V16.7969ZM18.75 7.42188C18.75 7.65365 18.6813 7.88022 18.5525 8.07293C18.4237 8.26565 18.2407 8.41585 18.0266 8.50455C17.8124 8.59324 17.5768 8.61645 17.3495 8.57123C17.1222 8.52602 16.9134 8.41441 16.7495 8.25052C16.5856 8.08663 16.474 7.87782 16.4288 7.6505C16.3835 7.42318 16.4068 7.18755 16.4955 6.97342C16.5842 6.75929 16.7344 6.57626 16.9271 6.4475C17.1198 6.31873 17.3463 6.25 17.5781 6.25C17.8889 6.25 18.187 6.37346 18.4068 6.59323C18.6265 6.813 18.75 7.11107 18.75 7.42188Z" fill="#666666"/>
</svg>
