<svg width="32" height="32" viewBox="0 0 32 32" fill="none" xmlns="http://www.w3.org/2000/svg">
<path d="M28.0003 21.3333H9.33366C8.98004 21.3333 8.6409 21.1929 8.39085 20.9428C8.1408 20.6928 8.00033 20.3536 8.00033 20C8.00033 19.6464 8.1408 19.3072 8.39085 19.0572C8.6409 18.8071 8.98004 18.6667 9.33366 18.6667H23.2537C24.1452 18.6667 25.0112 18.3689 25.7141 17.8206C26.4171 17.2722 26.9167 16.5047 27.1337 15.64L29.3337 6.98667C29.3836 6.78988 29.3879 6.58428 29.3463 6.38556C29.3048 6.18684 29.2183 6.00024 29.0937 5.84C28.964 5.67564 28.7974 5.54413 28.6075 5.45611C28.4176 5.36808 28.2095 5.32602 28.0003 5.33333H9.01366C8.73857 4.55527 8.22957 3.88133 7.55641 3.40392C6.88326 2.9265 6.07892 2.66899 5.25366 2.66667H4.00033C3.6467 2.66667 3.30756 2.80714 3.05752 3.05719C2.80747 3.30724 2.66699 3.64638 2.66699 4C2.66699 4.35362 2.80747 4.69276 3.05752 4.94281C3.30756 5.19286 3.6467 5.33333 4.00033 5.33333H5.25366C5.55824 5.32446 5.85667 5.42018 6.09927 5.60455C6.34186 5.78892 6.51399 6.05083 6.58699 6.34667L6.66699 6.98667L8.97366 16C7.91279 16.0477 6.91434 16.5149 6.19795 17.2989C5.48156 18.0828 5.10592 19.1191 5.15366 20.18C5.2014 21.2409 5.66861 22.2393 6.45251 22.9557C7.23641 23.6721 8.27279 24.0477 9.33366 24H9.57366C9.35437 24.6042 9.28391 25.2523 9.36823 25.8895C9.45256 26.5267 9.68919 27.1341 10.0581 27.6605C10.427 28.1868 10.9173 28.6165 11.4875 28.9132C12.0576 29.2098 12.6909 29.3647 13.3337 29.3647C13.9764 29.3647 14.6097 29.2098 15.1799 28.9132C15.75 28.6165 16.2403 28.1868 16.6092 27.6605C16.9781 27.1341 17.2148 26.5267 17.2991 25.8895C17.3834 25.2523 17.3129 24.6042 17.0937 24H20.2403C20.021 24.6042 19.9506 25.2523 20.0349 25.8895C20.1192 26.5267 20.3559 27.1341 20.7248 27.6605C21.0936 28.1868 21.5839 28.6165 22.1541 28.9132C22.7243 29.2098 23.3576 29.3647 24.0003 29.3647C24.6431 29.3647 25.2763 29.2098 25.8465 28.9132C26.4167 28.6165 26.907 28.1868 27.2759 27.6605C27.6448 27.1341 27.8814 26.5267 27.9658 25.8895C28.0501 25.2523 27.9796 24.6042 27.7603 24H28.0003C28.3539 24 28.6931 23.8595 28.9431 23.6095C29.1932 23.3594 29.3337 23.0203 29.3337 22.6667C29.3337 22.313 29.1932 21.9739 28.9431 21.7239C28.6931 21.4738 28.3539 21.3333 28.0003 21.3333ZM26.2937 8L24.547 14.9867C24.474 15.2825 24.3019 15.5444 24.0593 15.7288C23.8167 15.9132 23.5182 16.0089 23.2137 16H11.707L9.70699 8H26.2937ZM13.3337 26.6667C13.07 26.6667 12.8122 26.5885 12.5929 26.442C12.3736 26.2955 12.2027 26.0872 12.1018 25.8436C12.0009 25.5999 11.9745 25.3319 12.0259 25.0732C12.0774 24.8146 12.2044 24.577 12.3909 24.3905C12.5773 24.2041 12.8149 24.0771 13.0735 24.0256C13.3322 23.9742 13.6003 24.0006 13.8439 24.1015C14.0875 24.2024 14.2958 24.3733 14.4423 24.5926C14.5888 24.8118 14.667 25.0696 14.667 25.3333C14.667 25.687 14.5265 26.0261 14.2765 26.2761C14.0264 26.5262 13.6873 26.6667 13.3337 26.6667ZM24.0003 26.6667C23.7366 26.6667 23.4788 26.5885 23.2596 26.442C23.0403 26.2955 22.8694 26.0872 22.7685 25.8436C22.6676 25.5999 22.6412 25.3319 22.6926 25.0732C22.7441 24.8146 22.871 24.577 23.0575 24.3905C23.244 24.2041 23.4816 24.0771 23.7402 24.0256C23.9988 23.9742 24.2669 24.0006 24.5106 24.1015C24.7542 24.2024 24.9624 24.3733 25.109 24.5926C25.2555 24.8118 25.3337 25.0696 25.3337 25.3333C25.3337 25.687 25.1932 26.0261 24.9431 26.2761C24.6931 26.5262 24.3539 26.6667 24.0003 26.6667Z" fill="black"/>
</svg>
