<svg width="25" height="25" viewBox="0 0 25 25" fill="none" xmlns="http://www.w3.org/2000/svg">
<path d="M23.9745 6.80668C23.9304 6.70035 23.8559 6.60937 23.7604 6.54511C23.6649 6.48085 23.5525 6.44616 23.4374 6.44536H20.3515C19.97 5.74479 19.4089 5.15843 18.7259 4.74652C18.0428 4.33461 17.2623 4.11201 16.4647 4.10161C15.2663 4.0964 14.1147 4.56614 13.2618 5.40804C12.4089 6.24994 11.9243 7.39542 11.9139 8.59379V9.4434C7.77332 8.45707 4.35536 5.08793 4.31629 5.05864C4.24101 4.98432 4.147 4.93176 4.04426 4.90656C3.94152 4.88135 3.83386 4.88444 3.73273 4.91548C3.6316 4.94652 3.54075 5.00436 3.46984 5.08287C3.39893 5.16137 3.35059 5.25761 3.32997 5.36137C2.48036 10.0098 3.87684 13.1153 5.1952 14.9024C5.89442 15.8593 6.75335 16.6885 7.73426 17.3536C6.22059 19.1895 3.73036 20.1465 3.70106 20.1563C3.61786 20.1869 3.54285 20.2364 3.48187 20.3007C3.42089 20.3651 3.37559 20.4427 3.3495 20.5274C3.32179 20.6101 3.31354 20.698 3.32539 20.7844C3.33725 20.8708 3.36889 20.9533 3.41786 21.0254C3.51551 21.1719 4.47254 22.461 7.81239 22.461C14.619 22.461 20.3124 17.1973 20.8593 10.4395L23.8475 7.44145C23.9322 7.36209 23.99 7.25823 24.0128 7.14442C24.0355 7.0306 24.0222 6.91252 23.9745 6.80668ZM19.8729 9.76567C19.7714 9.86701 19.712 10.0031 19.7069 10.1465C19.3065 16.3965 14.0819 21.2891 7.81239 21.2891C6.45497 21.2891 5.58583 21.0547 5.06825 20.8204C6.17176 20.2637 7.9784 19.17 9.08192 17.5098C9.12588 17.441 9.15547 17.364 9.16889 17.2834C9.18232 17.2029 9.17931 17.1204 9.16004 17.0411C9.13923 16.9598 9.1015 16.8839 9.04933 16.8183C8.99716 16.7527 8.93173 16.6988 8.85731 16.6602C8.83778 16.6602 7.37293 15.8985 6.1034 14.1602C4.58973 12.0899 3.99403 9.56059 4.32606 6.64067C5.75184 7.85161 8.82801 10.1368 12.4022 10.7325C12.4864 10.7484 12.573 10.7455 12.6558 10.7238C12.7386 10.7021 12.8156 10.6622 12.8811 10.607C12.9465 10.5518 12.9989 10.4827 13.0343 10.4047C13.0697 10.3268 13.0873 10.2419 13.0858 10.1563V8.59379C13.0936 7.70881 13.4512 6.86286 14.0807 6.24073C14.7101 5.61861 15.5602 5.27087 16.4452 5.27348C17.0847 5.28271 17.7081 5.47535 18.2412 5.82851C18.7744 6.18166 19.195 6.68048 19.453 7.26567C19.4976 7.37094 19.5724 7.46058 19.6681 7.52318C19.7637 7.58578 19.8758 7.61852 19.9901 7.61723H22.0214L19.8729 9.76567Z" fill="#666666"/>
</svg>
