<svg width="34" height="34" viewBox="0 0 34 34" fill="none" xmlns="http://www.w3.org/2000/svg">
<path d="M6.41667 25.1667C7.83333 24.0833 9.41667 23.2289 11.1667 22.6033C12.9167 21.9789 14.75 21.6667 16.6667 21.6667C18.5833 21.6667 20.4167 21.9789 22.1667 22.6033C23.9167 23.2289 25.5 24.0833 26.9167 25.1667C27.8889 24.0278 28.6461 22.7361 29.1883 21.2917C29.7294 19.8472 30 18.3056 30 16.6667C30 12.9722 28.7017 9.82611 26.105 7.22833C23.5072 4.63167 20.3611 3.33333 16.6667 3.33333C12.9722 3.33333 9.82667 4.63167 7.23 7.22833C4.63222 9.82611 3.33333 12.9722 3.33333 16.6667C3.33333 18.3056 3.60444 19.8472 4.14667 21.2917C4.68778 22.7361 5.44444 24.0278 6.41667 25.1667ZM16.6667 18.3333C15.0278 18.3333 13.6456 17.7711 12.52 16.6467C11.3956 15.5211 10.8333 14.1389 10.8333 12.5C10.8333 10.8611 11.3956 9.47889 12.52 8.35333C13.6456 7.22889 15.0278 6.66667 16.6667 6.66667C18.3056 6.66667 19.6878 7.22889 20.8133 8.35333C21.9378 9.47889 22.5 10.8611 22.5 12.5C22.5 14.1389 21.9378 15.5211 20.8133 16.6467C19.6878 17.7711 18.3056 18.3333 16.6667 18.3333ZM16.6667 33.3333C14.3611 33.3333 12.1944 32.8956 10.1667 32.02C8.13889 31.1456 6.375 29.9583 4.875 28.4583C3.375 26.9583 2.18778 25.1944 1.31333 23.1667C0.437778 21.1389 0 18.9722 0 16.6667C0 14.3611 0.437778 12.1944 1.31333 10.1667C2.18778 8.13889 3.375 6.375 4.875 4.875C6.375 3.375 8.13889 2.18722 10.1667 1.31167C12.1944 0.437222 14.3611 0 16.6667 0C18.9722 0 21.1389 0.437222 23.1667 1.31167C25.1944 2.18722 26.9583 3.375 28.4583 4.875C29.9583 6.375 31.1456 8.13889 32.02 10.1667C32.8956 12.1944 33.3333 14.3611 33.3333 16.6667C33.3333 18.9722 32.8956 21.1389 32.02 23.1667C31.1456 25.1944 29.9583 26.9583 28.4583 28.4583C26.9583 29.9583 25.1944 31.1456 23.1667 32.02C21.1389 32.8956 18.9722 33.3333 16.6667 33.3333Z" fill="#93BE33"/>
</svg>
