<svg width="21" height="21" viewBox="0 0 21 21" fill="none" xmlns="http://www.w3.org/2000/svg">
<path d="M10.5001 0.539063C8.76314 0.539346 7.05646 0.993818 5.5494 1.85738C4.04233 2.72094 2.78728 3.96358 1.90877 5.46198C1.03026 6.96038 0.558838 8.66246 0.541281 10.3993C0.523723 12.1362 0.960641 13.8474 1.80868 15.3633L0.949304 18.3613C0.879129 18.596 0.873743 18.8452 0.933716 19.0827C0.99369 19.3201 1.11679 19.5369 1.28997 19.7101C1.46315 19.8833 1.67995 20.0064 1.9174 20.0664C2.15486 20.1263 2.40412 20.121 2.63876 20.0508L5.6368 19.1914C6.96522 19.9352 8.44645 20.3645 9.9667 20.4465C11.487 20.5285 13.0058 20.2609 14.4064 19.6642C15.8071 19.0676 17.0524 18.1579 18.0466 17.0049C19.0409 15.8519 19.7576 14.4863 20.1417 13.0131C20.5258 11.5399 20.5671 9.99827 20.2624 8.50661C19.9578 7.01495 19.3152 5.61298 18.3841 4.4084C17.4531 3.20382 16.2583 2.2287 14.8916 1.55793C13.5248 0.887168 12.0225 0.53862 10.5001 0.539063ZM10.5001 19.2891C8.9226 19.2886 7.37431 18.8636 6.01766 18.0586C5.92441 18.0088 5.82062 17.982 5.71493 17.9805C5.66209 17.9773 5.60912 17.9839 5.55868 18L2.31649 18.9277C2.28256 18.9382 2.24642 18.9392 2.21195 18.9306C2.17749 18.9221 2.14602 18.9043 2.12091 18.8792C2.0958 18.8541 2.07801 18.8226 2.06946 18.7881C2.0609 18.7537 2.0619 18.7175 2.07235 18.6836L3.00009 15.4414C3.02199 15.3649 3.02809 15.2848 3.01801 15.2059C3.00794 15.127 2.9819 15.0509 2.94149 14.9824C1.9525 13.3144 1.54293 11.3661 1.77659 9.441C2.01024 7.51593 2.874 5.72218 4.23331 4.33916C5.59263 2.95614 7.37117 2.06149 9.29192 1.79459C11.2127 1.52768 13.1677 1.9035 14.8526 2.8635C16.5375 3.8235 17.8577 5.31378 18.6073 7.10221C19.357 8.89063 19.4942 10.8768 18.9975 12.7513C18.5007 14.6258 17.398 16.2834 15.8611 17.4659C14.3242 18.6484 12.4393 19.2894 10.5001 19.2891ZM15.5294 12.1406L13.5274 10.998C13.3167 10.8792 13.0782 10.8184 12.8363 10.8218C12.5944 10.8252 12.3577 10.8928 12.1505 11.0176L10.9005 11.7695C10.19 11.3915 9.60859 10.81 9.23055 10.0996L9.98251 8.84961C10.1073 8.64235 10.1749 8.40568 10.1783 8.16377C10.1817 7.92186 10.1209 7.68338 10.002 7.47266L8.85946 5.4707C8.74852 5.27854 8.58916 5.11882 8.39725 5.00744C8.20534 4.89607 7.98759 4.83694 7.76571 4.83594C6.8868 4.83593 6.04374 5.18441 5.42134 5.80498C4.79894 6.42555 4.44798 7.26758 4.4454 8.14649C4.44411 9.25021 4.6604 10.3434 5.08189 11.3634C5.50337 12.3835 6.12179 13.3105 6.90179 14.0914C7.68178 14.8723 8.60805 15.4918 9.62764 15.9145C10.6472 16.3371 11.7401 16.5547 12.8438 16.5547H12.8536C13.7325 16.5521 14.5745 16.2011 15.1951 15.5787C15.8157 14.9563 16.1642 14.1133 16.1641 13.2344C16.1632 13.0125 16.104 12.7947 15.9926 12.6028C15.8813 12.4109 15.7215 12.2516 15.5294 12.1406ZM12.8536 15.3828H12.8438C10.9263 15.3802 9.08825 14.6167 7.73329 13.2599C6.37833 11.9031 5.61727 10.064 5.61727 8.14649C5.61986 7.57838 5.84735 7.03442 6.24998 6.63362C6.65261 6.23282 7.1976 6.00781 7.76571 6.00781C7.79581 6.01028 7.8238 6.02427 7.84384 6.04688L8.98641 8.04883C9.0021 8.07937 9.00945 8.11351 9.00774 8.1478C9.00602 8.18208 8.9953 8.21532 8.97665 8.24414L8.06845 9.77734C8.01703 9.85626 7.98647 9.94692 7.97964 10.0409C7.97281 10.1348 7.98992 10.2289 8.02938 10.3145C8.56326 11.4928 9.50731 12.4368 10.6856 12.9707C10.7712 13.0102 10.8653 13.0273 10.9592 13.0204C11.0532 13.0136 11.1438 12.9831 11.2227 12.9316L12.7559 12.0234C12.7848 12.0048 12.818 11.9941 12.8523 11.9924C12.8866 11.9906 12.9207 11.998 12.9513 12.0137L14.9532 13.1562C14.9758 13.1763 14.9898 13.2043 14.9923 13.2344C14.9923 13.8025 14.7673 14.3475 14.3665 14.7501C13.9657 15.1527 13.4217 15.3802 12.8536 15.3828Z" fill="#666666"/>
</svg>
